<svg xmlns="http://www.w3.org/2000/svg" width="16" height="16">
  <path fill="white" d="M7 2v3a2 2 0 0 1-2 2h-.46A3.5 3.5 0 0 1 6.5 4.34V3.08A8 4.5 0 0 0 0 7.5a8 4.5 0 0 0 .05.5H5a2 2 0 0 1 2 2v4h1v-2a8 4.5 0 0 0 8-4.5A8 4.5 0 0 0 8 3V2zm1 2a3.5 3.5 0 0 1 3.46 3H10a2 2 0 0 1-2-2zm-3.27.4A4.5 4.5 0 0 0 3.53 7H1.07a7 3.5 0 0 1 3.66-2.6m6.54 0A7 3.5 0 0 1 14.93 7h-2.46a4.5 4.5 0 0 0-1.2-2.6M10 8h1.46A3.5 3.5 0 0 1 8 11v-1a2 2 0 0 1 2-2m2.47 0h2.46a7 3.5 0 0 1-3.66 2.6 4.5 4.5 0 0 0 1.2-2.6M.2 8.5a8 4.5 0 0 0 6.3 3.42v-1.26A3.5 3.5 0 0 1 4.65 8.5H3.6a4.5 4.5 0 0 0 1.12 2.1A7 3.5 0 0 1 1.3 8.5z"/>
</svg>
